<svg width="50" height="50" viewBox="0 0 50 50" fill="none" xmlns="http://www.w3.org/2000/svg">
<g clip-path="url(#clip0_57_3)">
<path d="M24.6718 35.3282L25.7325 34.2676L24.6718 35.3282C25.0432 35.6996 25.4842 35.9942 25.9694 36.1952C26.4547 36.3962 26.9748 36.4997 27.5 36.4997C28.0252 36.4997 28.5453 36.3962 29.0306 36.1952C29.5158 35.9942 29.9568 35.6996 30.3282 35.3282L37.8251 27.8313C37.8256 27.8308 37.8261 27.8303 37.8266 27.8298C38.1991 27.4591 38.4947 27.0184 38.6965 26.5332C38.8986 26.0473 39.0026 25.5263 39.0026 25.0001C39.0026 24.4739 38.8986 23.9528 38.6965 23.4669C38.4947 22.9817 38.1991 22.5411 37.8266 22.1703C37.8261 22.1699 37.8256 22.1694 37.8251 22.1689L30.3282 14.6719C29.9568 14.3005 29.5159 14.0059 29.0306 13.8049C28.5453 13.6039 28.0252 13.5004 27.5 13.5004C26.9748 13.5004 26.4547 13.6039 25.9694 13.8049C25.4841 14.0059 25.0432 14.3005 24.6718 14.6719C24.3004 15.0433 24.0058 15.4842 23.8048 15.9695C23.6038 16.4547 23.5004 16.9748 23.5004 17.5001C23.5004 18.0253 23.6038 18.5454 23.8048 19.0307C24.0058 19.5159 24.3004 19.9568 24.6718 20.3282L25.3437 21.0001H15C13.9391 21.0001 12.9217 21.4215 12.1716 22.1716C11.4214 22.9218 11 23.9392 11 25.0001C11 26.0609 11.4214 27.0784 12.1716 27.8285C12.9217 28.5786 13.9391 29.0001 15 29.0001H25.3437L24.6718 29.6719C24.3004 30.0433 24.0058 30.4842 23.8048 30.9695C23.6038 31.4547 23.5004 31.9748 23.5004 32.5001C23.5004 33.0253 23.6038 33.5454 23.8048 34.0307C24.0058 34.5159 24.3004 34.9568 24.6718 35.3282ZM48.5 25C48.5 37.9566 37.9566 48.5 25 48.5C12.0434 48.5 1.5 37.9566 1.5 25C1.5 12.0434 12.0434 1.5 25 1.5C37.9566 1.5 48.5 12.0434 48.5 25Z" stroke="white" stroke-width="3"/>
</g>
<defs>
<clipPath id="clip0_57_3">
<rect width="50" height="50" fill="white"/>
</clipPath>
</defs>
</svg>
